<svg xmlns="http://www.w3.org/2000/svg" id="Layer_1" viewBox="0 0 188.6 111.8"><defs><style>      .st0 {        fill: #d89d12;      }      .st1 {        fill: #ddd;      }    </style></defs><path id="Fill-3" class="st0" d="M142.9,31.1c-1.8,0-3.2,1.6-3.2,3.4s1.6,3.2,3.4,3.2,3.2-1.6,3.2-3.4c0-1.8-1.5-3.2-3.4-3.2h0ZM155.4,2c-1.7,1.2-3.1,3.9-3.1,8s.7,5.5,2.6,8.9c-2.6,3.6-3.1,6.8-2,10,.8,2.4,1.3,3,1.6,4.4,1,3.6,0,8-2.9,14.7-2.3,5.5-5.3,11.2-5.3,18.1s0,3.2.4,4.7c.3-.3.8-.8,1.5-1.4-.3-5.5,1.8-10.9,4.5-15.9,3.9-7.2,4.3-14.5,3.6-18.5,2.7,2.9,7.3,7.3,9.9,11.7.9,1.5,1.4,2.9,1.6,4.4,0,3.5-1,6.1-3.1,8.5-1.8,2.1-1.2,3.9-1.1,4.3,0,.6.9,2.9,1.4,4.4,2-4,7.6-6.2,10.1-9.5.6,4.1-2.5,7.9-4.7,10.5-.5.6-1.1,1.2-1.8,1.8-4.3,4.1-7.1,6.9-8.6,9.6-.4.6-1,1.9-1.3,2.9-.4,1.3-1,3.4-1.5,7.2-.4,2.2-.8,4.9-.9,6-.3,2.7-1.1,7-4.4,8.2-.2,0-.4,0-.5.2h0c-3.1.7-6.3-1.9-8.6-6.7-.5.4-1,.7-1.6.9,3.1,7.5,7.9,10.9,12,10.9s5.6-1.6,6.4-6.3c.4-2.3.7-4.9,1-7.5,0-1.2.7-8.1,1.8-10.6,1.4-2.8,4.3-5.5,8.7-10.1,2.7-2.8,4.2-5.2,5-7.1,2.6-4.7-.6-16-1.2-18q0,0,0,0t0,0h0c-1.1,1.9-3.2,3.6-5.1,5,1.1-2.9.8-5.2.4-7h0c0,0,0-.2,0-.3h0c-1.9-7.5-9.5-14.1-12.9-18-4.5-5-2.9-8.2-1.3-10.2.3.5.6.9,1,1.4,6.1,8.3,17.5,21.4,23.4,33.9,1.5,3.2,2.7,6.3,3.3,9.2,2.4,12.9-6.6,26.1-20.1,22.4h0c0,0-.2,0-.3,0-.4,1.2-.7,3-1,5.5,2,.9,4.2,1.4,6.4,1.5h.5c11.1,0,19.7-8.2,18.1-25.7,0,0-.7-7.3-4.4-14.9-6-13.5-17-26.8-23.8-35.4-2.2-2.7-3.4-5.1-4.1-7.1-1.3-4-.5-7.1,1.2-8.4.4-.3.8-.6,1.2-.8.2,0,0-.4,0-.4h0c-.2,0-.7.1-1.6.7h0ZM147.2,25.5c-1.8,0-3.2,1.6-3.2,3.4,0,1.8,1.6,3.3,3.4,3.2,1,0,1.8-.5,2.4-1.2h0c.4,2.5-.9,4.6-3.8,7.1-3,2.5-9.9,5.8-14.9,9.8-7,5.5-8.6,11.6-9,16.5-.2,2.2,0,5.1.7,7.4.7,3,1.8,5.3,1.8,5.3,0,0,0,0,0,.3-.2,3.2,0,8.9,2,13.2,2.4,5.5,6.8,10,13.1,8.7,6.3-1.5,7-11.9,7.7-19.4.2-1.2.4-1.5.8-1.8,1-.9,3.5-3.2,4.7-4.2.7-.6,1.4-1.3,1.8-2.1.5-1,.2-2.3.2-2.3l-.7-5c-.2.7-1,1.7-2.2,2.9-1.3,1.3-4.6,4.2-4.9,4.5s-1.4,1.1-1.9,4.9c-1.2,10.4-3.2,15.2-6.9,16.9-1,.5-2,.7-3.2.7-6.7,0-8.4-8.2-8.4-12.7v-.8c1.5,2.1,3.8,4.2,6.6,3.7,4.5-.7,3.1-8.3,2.4-10.1-.6-1.8-2.4-7.1-6.1-6.8-2.7.2-3.9,3.3-4.5,6-.4-2.4-.7-4.8-.5-6.8.4-4.6,2-10.4,8.6-16.1,4.8-4,10.1-6.9,13.1-9.3,1.9-1.5,3.1-3.2,3.8-4.8-.2,1.5-.6,3.2-1.3,5.2-2.8,7.3-11.2,19.4-11.3,36.6,0,5.3.5,9.8,1.3,13.7.5-.3.9-.7,1.3-1.2-.6-2.8-.9-5.9-.9-9.2,0-17.1,8.3-29.2,11-36.5,1.4-3.9,1.5-6.7,1.5-9.4s-.8-7-1.5-8.3c-.8-1.3-1.7-1.9-3.1-1.9h0s0-.1,0-.1ZM127.4,77.5c.5-1.6,1.4-3.1,3.1-4,2.7-1.3,3.7,1.9,3.7,1.9-.2,2.2-1.8,3.3-3.6,3.3s-2.2-.4-3.2-1.2h0ZM162.5,50.5c-.3.3-1.8,2-3.2,3.6-1.3,1.4-2.5,2.8-2.8,3.1-.6.7-.9,1.4-.9,1.7l.4,1.8c0-.3.5-1,.9-1.5.3-.3,1.8-2,3.2-3.6,1.3-1.4,2.5-2.8,2.8-3.1.6-.7.9-1.4.9-1.7l-.4-1.9c0,.5-.5,1.2-.9,1.6h0ZM136.6,53.3s-2.6,1.9-3.7,4.4c-.6,1.5-.6,3.2-.2,4s1.2,1.6,2.4.6c.8-.6,1.1-1.5,1.3-2.3,0-.5,0-.7,0-1s0-.5-.4-.5c-.8.3-.3,1.3-.8,1.8-.4.3-1.5,0-1.7-.9-.2-1.1.6-2.4,1.3-3.3.7-.9,2-2.1,2-2.1,0,0,.9-.8.6-1.2h0c-.1,0-.8.5-.8.5h0ZM156.9,73.2l4.2,2,2.3-5-4.2-2-2.3,5ZM148.9,78.5c1.8,4.2,4.5,7.8,7.6,10.5.3-2.2.7-3.7,1-4.9-3.2-2.3-5.4-4.7-6.9-7.2l-1.7,1.6ZM170.7,82l4.2,2,2.3-5-4.2-2-2.3,5ZM147.8,92.5l3.6,3,3.5-4.2-3.6-3-3.5,4.2ZM147,99.9l3.6,3,3.5-4.2-3.6-3-3.5,4.2ZM163.9,96.8c-.2,0-.2.3,0,.7,0,.4.7,2,.7,2,.4,1.2,1.2,2.6,2.2,3.3,1.1.8,1.6.5,1.8.4.2,0,.8-.5.6-1.6-.3-1.2-.4-1.5-.6-1.9s-.5-.7-.7-.6c0,0,0,.4,0,.6,0,.4-.2.7-.5.9-.3,0-1.1.4-1.7-.6-.5-.9-.9-2-1.1-2.4-.1-.4-.3-.8-.6-.8,0,0,0,0,0,0h0Z"></path><g><path id="Fill-31" data-name="Fill-3" class="st1" d="M34.7,49.6c.2.1.3.1.5.2.2,0,.4.1.6.1h5.8c0-.3,0-.7,0-1.2s-.3-1.1-.5-1.6c-.3-.6-.7-1.1-1.2-1.7-.5-.6-1.2-1.1-2.1-1.5l.6-2.7c1,.3,1.9.8,2.8,1.5.4.3.7.7,1.1,1.1.4.4.7.9,1,1.5s.6,1.3.8,2c.2.8.4,1.6.5,2.6h2.3v2.7h-11.2c-.2,0-.4-.1-.6-.1-.2-.1-.4-.1-.5-.2l.2-2.7Z"></path><path id="Fill-5" class="st1" d="M57.4,50c0-.8,0-1.5-.2-2.1s-.3-1.2-.6-1.7c-.3-.5-.7-.9-1.1-1.2-.5-.3-1.1-.5-1.9-.6.4.3.7.8,1,1.4.2.6.3,1.3.3,2.1s0,.8-.2,1.1c0,.4-.2.7-.2.9h2.9ZM52.5,48.3c0-.8,0-1.4-.4-1.9s-.6-.7-.9-.7-.3.1-.5.2c0,.1-.2.3-.3.5,0,.2,0,.4-.2.7,0,.2,0,.5,0,.7v.7c0,.3,0,.5.2.8,0,.2.2.5.4.6.2.2.5.3.8.3s.6-.2.7-.5c.2-.5.3-.9.3-1.4h0ZM60.4,50h2.3v2.6h-16.8v-2.6h2.6c-.3-.2-.5-.5-.5-1s0-.9,0-1.4,0-.8.2-1.2.3-.8.5-1.2.5-.7.8-1,.6-.4,1-.5c-.5,0-.9-.1-1.2-.2-.3-.1-.6-.3-.8-.5-.2-.2-.4-.5-.5-.8s-.2-.7-.3-1.1c1.2.4,3.2.7,5.9.9,1.3.2,2.3.4,3.2.8.9.4,1.6.8,2.1,1.5.5.6.9,1.4,1.2,2.3.3.9.4,2,.4,3.4h0Z"></path><path id="Fill-7" class="st1" d="M72.4,45.8c-.2-.2-.4-.4-.6-.5-.3-.2-.5-.3-.8-.4-.3-.1-.6-.2-.9-.3s-.6-.1-.8-.1c-.3,0-.6,0-.9.1s-.6.2-.9.3-.6.2-.8.4-.4.3-.6.5l3.1,4.2,3.2-4.2ZM71.4,52.6c-.5,0-.9-.1-1.3-.3s-.7-.5-.9-1c-.3.5-.6.8-.9,1-.4.2-.8.3-1.3.3h-5.1v-2.7h4.4l-3.2-4.2c.8-1.3,1.7-2.2,2.8-2.8,1-.6,2.2-.9,3.4-.9s2.4.3,3.4.9c1,.6,2,1.5,2.8,2.8l-3.2,4.2h4.6v2.7h-5.5Z"></path><path id="Fill-9" class="st1" d="M84.8,51.2c-.2-1.4-.4-2.6-.7-3.5-.3-.9-.7-1.3-1.1-1.3s-.4.2-.8.6c-.2.2-.5.6-.7,1-.3.4-.5.8-.6,1.1.7.5,1.3,1,2,1.3.5.3,1.2.6,1.9.8M87.4,50.8c0,.4-.2.9-.5,1.6-.6,1.3-1.2,2-1.8,2s-.4-.1-.7-.2c-.5-.2-1.1-.5-1.9-.9s-1.8-.9-2.9-1.5c-.3.5-.6.8-.9.9-.3.1-.7.1-1.3.1h-1.5v-2.6h1.7c.5-1.1,1-2.1,1.5-3s1-1.7,1.5-2.3,1-1.1,1.5-1.5.9-.5,1.3-.5c1,0,1.9.8,2.6,2.3.2.5.4,1,.6,1.7s.4,1.5.7,2.5c0,.6.1,1.1.1,1.4"></path><path id="Fill-17" class="st1" d="M45.8,78.9l-4.8,1.4v-1.2l1.3-.4c0,0-.3-.1-.4-.2,0-.1-.2-.2-.3-.4,0-.1,0-.3-.2-.4,0-.2,0-.3,0-.4,0-.4,0-.8.3-1.1.2-.3.4-.6.7-.8.3-.2.6-.4.9-.5s.6-.2.9-.2.6,0,.9.1.5.3.8.7c0,.1-.3.2-.5.4s-.4.4-.7.6c-.2-.3-.5-.4-.9-.4s-.6.1-.7.3-.2.4-.2.6,0,.3,0,.5c0,.1.2.3.4.4,0,.1.3.2.5.2.2.1.3.1.4.1l1.5-.4v1.1h0ZM40.5,63.2c0-.1.3-.1.5-.2.2-.1.5-.2.7-.3.3-.1.6-.2.9-.4.4.5.8,1.2,1.2,2,.4.8.7,1.6,1,2.5s.6,1.7.8,2.4c.2.8.4,1.4.6,1.9.3,0,.5-.1.7-.3.2-.1.3-.3.4-.5s.2-.4.2-.6v-9.2l2.5-.8v10.1c0,.4,0,.7.3.9.2.2.5.3.9.3h1.6v2.2h-.9c-.6,0-1.2-.1-1.6-.4-.4-.2-.8-.6-1-1-.3.4-.7.7-1.3.9-.5.2-1.3.4-2.2.4h-7l.7-2.2h4.1c0-.5-.2-1-.4-1.6-.2-.6-.4-1.3-.6-2-.3-.7-.6-1.4-.9-2.2-.3-.5-.7-1.2-1.2-1.9h0Z"></path><path id="Fill-11" class="st1" d="M10.7,71.8c-.2-1.2-.4-2.2-.6-2.9-.3-.7-.6-1.1-.9-1.1s-.4.2-.7.5c-.2.2-.4.5-.6.8-.2.4-.4.7-.5.9.8.3,1.4.7,2,1,.5.3,1,.6,1.3.8M5.8,69.5c.7-1.5,1.4-2.6,2-3.4.6-.8,1.2-1.2,1.8-1.2s1.6.6,2.1,1.9c.2.4.3.8.5,1.4.2.6.3,1.2.5,2,0,.5.2.9,0,1.2,0,.3-.2.8-.4,1.3-.5,1.1-1,1.6-1.5,1.6s-.3,0-.5-.1-.5-.2-.7-.4c-.3-.2-.6-.4-1-.6-.4-.2-.8-.4-1.2-.7-.4-.2-.9-.5-1.4-.7-.2-.1-.4-.1-.6-.1s-.3.1-.4.3c0,.1-.2.3-.3.5s0,.4,0,.5v4.6h-2.1v-6c0-.4,0-.8.3-1.1s.4-.6.7-.8.6-.3,1-.4c.4,0,.8,0,1.2.2"></path><path id="Fill-13" class="st1" d="M15.7,63.1c0-.1.3-.1.5-.2.2-.1.5-.2.7-.3.3-.1.6-.2.9-.4.4.5.8,1.2,1.1,2,.4.8.7,1.6,1,2.5s.6,1.7.8,2.5.4,1.4.5,1.9c.3,0,.5-.1.7-.3.2-.1.3-.3.4-.5,0-.2.2-.4.2-.6v-9.2l2.5-.8v10.2c0,.4,0,.7.3.9s.5.3.8.3h1.5v2.2h-.9c-.6,0-1.1-.1-1.6-.4-.4-.2-.8-.6-1-1-.3.4-.7.7-1.2.9s-1.2.4-2.1.4h-6.7l.7-2.2h4c0-.5-.2-1-.4-1.6s-.4-1.3-.6-2c-.3-.7-.5-1.4-.9-2.2-.3-.6-.7-1.4-1.2-2.1"></path><path id="Fill-15" class="st1" d="M27.1,71.1h3.1c-.3-.3-.4-.8-.5-1.3s0-1,0-1.6c0-1.1.4-1.9,1.3-2.6.8-.6,2-1,3.5-1s1.1,0,1.8.1c.7.1,1.3.2,1.9.3v2.2c-.2-.1-.4-.1-.7-.2-.3-.1-.6-.1-.9-.2-.3-.1-.7-.1-1.1-.1h-1.1c-.3,0-.5,0-.8.1-.2,0-.5.1-.6.2-.2.1-.3.3-.4.5,0,.2-.2.5-.2.8,0,.7,0,1.3.2,1.7,0,.4.3.7.5,1h5.2v2.2h-11.1v-2.1Z"></path><polygon id="Fill-20" class="st1" points="52.3 71.1 54.9 71.1 54.9 60.4 57.3 59.7 57.3 73.2 52.3 73.2 52.3 71.1"></polygon><path id="Fill-22" class="st1" d="M68,61.9c0-.5.2-.9.5-1.2s.7-.5,1.2-.5.4,0,.6.1.4.2.5.4.3.3.3.5c0,.2,0,.4,0,.7,0,.5-.2.9-.5,1.2s-.7.5-1.2.5-.4,0-.7-.1c-.2-.1-.4-.2-.5-.4s-.3-.3-.4-.5c0-.3,0-.5,0-.7M69.8,69.9c0-.2,0-.4,0-.7s0-.6-.3-.9c0-.3-.3-.6-.6-.9-.2-.3-.5-.5-.9-.6-.2.1-.4.3-.6.6-.2.2-.4.5-.5.8s-.3.5-.3.8c0,.3,0,.5,0,.7,0,.3,0,.5,0,.7s.2.3.3.5c0,.1.3.2.5.3s.3.1.5.1c.6,0,1-.1,1.4-.3.4-.4.6-.7.6-1.1M64,61.9c0-.5.2-.9.5-1.2s.7-.5,1.2-.5.4,0,.6.1.4.2.5.4.3.3.3.5c0,.2,0,.4,0,.7,0,.5-.2.9-.5,1.2s-.7.5-1.2.5-.4,0-.7-.1c-.2-.1-.4-.2-.5-.4s-.3-.3-.4-.5c.2-.3,0-.5,0-.7M72.5,70c0,.6,0,1.2-.3,1.6s-.6.8-1,1.1-.9.5-1.5.6-1.2.2-1.9.2-.9,0-1.4-.1-.9-.2-1.3-.4-.7-.5-1-.9-.4-.8-.4-1.4c0-1,.2-2,.6-2.8s1-1.5,1.8-2.1l-.7-.3.9-1.6c.9.2,1.8.5,2.5.9s1.4.8,1.9,1.4c.5.5.9,1.1,1.2,1.8.4.5.6,1.2.6,2"></path><path id="Fill-24" class="st1" d="M77.4,64.4c.2,1.1.3,2.2.4,3.2,0,1.1.2,2.1.2,3h2.1v2.6h-2.1c0,.2,0,.5,0,.8s-.2.6-.3,1c0,.3-.3.7-.6,1-.3.3-.6.6-1,.9-.4.3-.9.5-1.5.6-.6.2-1.3.2-2.2.2l-.4-1.6c.7,0,1.3-.1,1.8-.4.2-.1.4-.2.6-.4s.4-.4.6-.6c.2-.2.3-.5.4-.9,0-.3.2-.7.2-1.2,0-1.2,0-2.4,0-3.7s-.2-2.5-.6-3.8l2.6-.7Z"></path><path id="Fill-26" class="st1" d="M83.9,76.7c0-.5.2-.9.5-1.2s.7-.5,1.2-.5.4,0,.6.1.4.2.5.4.3.3.3.5c0,.2,0,.4,0,.7,0,.5-.2.9-.5,1.2s-.7.5-1.2.5-.4,0-.7-.1c-.2-.1-.4-.2-.5-.4s-.3-.3-.4-.5c.2-.3,0-.5,0-.7h0ZM80,76.7c0-.5.2-.9.5-1.2s.7-.5,1.2-.5.4,0,.6.1.4.2.5.4.3.3.3.5c0,.2,0,.4,0,.7,0,.5-.2.9-.5,1.2s-.7.5-1.2.5-.4,0-.7-.1c-.2-.1-.4-.2-.5-.4s-.3-.3-.4-.5c0-.3,0-.5,0-.7h0ZM86.9,64.3v8.9h-7.3v-2.6h4.4v-5.4l2.9-.9Z"></path><path id="Fill-28" class="st1" d="M89.2,61.9c0-.5.2-.9.5-1.2s.7-.5,1.2-.5.4,0,.6.1.4.2.5.4.3.3.3.5c0,.2,0,.4,0,.7,0,.5-.2.9-.5,1.2s-.7.5-1.2.5-.4,0-.7-.1c-.2-.1-.4-.2-.5-.4s-.3-.3-.4-.5c.2-.3,0-.5,0-.7h0ZM92.6,64.4c.2,1.1.3,2.2.4,3.2,0,1.1.2,2.1.2,3h2.1v2.6h-2.1c0,.2,0,.5,0,.8s-.2.6-.3,1c0,.3-.3.7-.6,1-.3.3-.6.6-1,.9-.4.3-.9.5-1.5.6-.6.2-1.3.2-2.2.2l-.4-1.6c.7,0,1.3-.1,1.8-.4.2-.1.4-.2.6-.4s.4-.4.6-.6c.2-.2.3-.5.4-.9,0-.3.2-.7.2-1.2,0-1.2,0-2.4,0-3.7s-.2-2.5-.6-3.8l2.6-.7Z"></path><path id="Fill-30" class="st1" d="M99.5,76.6c0-.5.2-.9.5-1.2s.7-.5,1.2-.5.4,0,.6.1c.2.1.4.2.5.4s.3.3.3.5c.1.2.1.4.1.7,0,.5-.2.9-.5,1.2s-.7.5-1.2.5-.4,0-.7-.1c-.2-.1-.4-.2-.5-.4s-.3-.3-.4-.5c.2-.3,0-.5,0-.7h0ZM107.9,73.2h-13.2v-2.6h8.2c-.3-.7-.6-1.3-.9-1.7-.2-.5-.5-.8-.6-1.1-.2-.3-.4-.5-.6-.6-.2-.1-.4-.2-.6-.2-.3,0-.6.1-.9.3-.2.2-.5.5-.8.9l-1.7-1.5c.2-.3.5-.6.8-.9.3-.3.6-.5,1-.7s.7-.4,1.1-.5c.4-.1.8-.2,1.1-.2s.8.1,1.2.3.7.5,1.1.9c.4.4.7,1,1.2,1.7.4.7.9,1.5,1.4,2.5.2.3.4.6.6.7.2.1.5.2.8.2h.8v2.5h0Z"></path><polygon id="Fill-32" class="st1" points="112.9 59.6 112.9 73.2 107.4 73.2 107.4 70.6 109.9 70.6 109.9 60.4 112.9 59.6"></polygon><polygon id="Fill-34" class="st1" points="118.1 59.6 118.1 73.2 115.1 73.2 115.1 60.4 118.1 59.6"></polygon></g></svg>