<svg xmlns="http://www.w3.org/2000/svg" id="Layer_1" width="219.31" height="194" viewBox="0 0 219.31 194"><defs><style>      .cls-1 {        fill: #fff;      }      .cls-2 {        fill: #174171;      }      .cls-3 {        fill: #f4843c;      }    </style></defs><g><path class="cls-2" d="M219.31,10.95c-16.05-6.88-38.94,3.72-41.92,5.16C167.6,6.17,154,0,138.96,0H53.9C24.13,0,0,24.13,0,53.9v85.06c0,29.77,24.13,53.9,53.9,53.9h85.06c29.77,0,53.9-24.13,53.9-53.9V53.9c0-8.71-2.07-16.94-5.74-24.22,0,0-1.18-2.14-2.04-3.68h0c-1.3-2.14-2.74-4.17-4.31-6.1,18.76-11.3,38.54-8.94,38.54-8.94Z"></path><path class="cls-1" d="M58.77,35.68l30.98,64.36S167.7-9.72,219.31,10.95c0,0-42.99-35.5-123.62,47.8l-36.91-23.06Z"></path></g><g><polygon class="cls-3" points="45.85 91.53 50.19 100.91 66.22 90.23 59.6 76.14 43.85 86.61 39.44 77.3 23.48 87.91 30.02 102.08 45.85 91.53"></polygon><path class="cls-3" d="M36.99,184.07c3.3,0,7.17-.44,11.59-1.33,4.42-.89,8.82-2.56,13.2-5.02,4.38-2.46,8.27-5.96,11.68-10.5,3.41-4.54,5.79-10.43,7.16-17.66,1.2-7.19,1.3-13.3.31-18.34-.99-5.04-2.61-9.16-4.86-12.36-2.25-3.2-4.63-5.68-7.13-7.44-2.5-1.76-5.57-3.29-9.2-4.62v.06c-2.11,2.19-3.92,4.3-5.45,6.32-1.53,2.02-3.06,4.39-4.59,7.09-1.53,2.71-2.82,5.69-3.87,8.95-1.05,3.26-1.58,6.67-1.58,10.22,0,2.77.61,5.11,1.83,7.03,1.22,1.92,2.81,3.44,4.77,4.55,1.96,1.12,4.08,1.84,6.35,2.17,2.27.33,4.5.27,6.69-.19,2.93-.66,5.48-1.97,7.65-3.93,2.17-1.96,3.89-4.1,5.17-6.41.16.79.25,1.61.25,2.48,0,2.64-.6,5.32-1.8,8.02-1.2,2.71-3.03,5.17-5.48,7.4-2.46,2.23-5.56,4.04-9.29,5.42-3.74,1.38-8.11,2.08-13.11,2.08s-9.76-1.23-13.91-3.69c-4.15-2.46-7.03-5.77-8.64-9.95-1.98-5.62-1.92-11.61.19-17.97,2.11-6.36,6.18-11.63,12.21-15.8-9.38,4.3-16.4,9.19-21.07,14.69-4.67,5.49-7.39,11.07-8.18,16.73-.79,5.66-.01,10.91,2.32,15.74,2.33,4.83,5.86,8.75,10.56,11.74,4.71,2.99,10.12,4.49,16.23,4.49ZM66.61,137.82c-2.56.31-5.56.13-8.98-.53-4.13-.87-6.94-2.01-8.43-3.44s-2.18-2.86-2.08-4.31c.1-1.45.82-3.2,2.14-5.27,5.82,1.69,10.57,3.43,14.25,5.2,3.68,1.78,6.86,4.03,9.54,6.75-1.73.74-3.88,1.27-6.44,1.58Z"></path><path class="cls-3" d="M110.02,128.11c-1.73-2.71-3.48-5.04-5.24-7-1.76-1.96-3.83-4-6.23-6.1l-7.37,20.82c7.35,5.62,13.59,10.82,18.71,15.61-4.67,4.67-9.17,8.77-13.51,12.3-4.34,3.53-9.55,7.23-15.65,11.09-6.09,3.86-12.95,7.39-20.57,10.6-7.62,3.2-15.91,5.21-24.71,6.82-6.61,1.03-10.01.96-16,1.42,2.41-.05,4.6.56,8.42.25,3.82-.31,7.66-.61,11.53-.9,3.86-.29,7.66-.58,11.4-.87,3.74-.29,7.35-.56,10.84-.81,3.49-.25,6.8-.49,9.91-.71,3.12-.23,5.97-.44,8.55-.65,2.58-.21,4.83-.39,6.75-.56,1.92-.17,3.46-.32,4.62-.46,1.16-.15,1.84-.28,2.04-.4,4.34-2.07,8.22-5.06,11.65-8.98,3.39-3.8,6.07-8.38,8.06-13.72,1.98-5.35,2.97-11.33,2.97-17.94,0-3.8-.6-7.37-1.8-10.72-1.2-3.35-2.66-6.37-4.4-9.08Z"></path><polygon class="cls-3" points="176.24 102.16 168.06 87.08 152.92 95.31 161.16 110.39 176.24 102.16"></polygon><path class="cls-3" d="M184.99,135.75c-1.3-3.68-2.9-6.7-4.8-9.08-1.9-2.37-3.8-4.21-5.7-5.51-1.9-1.3-4.15-2.47-6.75-3.5-4.26,6.53-7.6,12.06-10.04,16.61-2.44,4.54-4.26,8.96-5.45,13.26-1.2,5.74-.57,10,1.89,12.76,2.46,2.77,5.98,4.03,10.56,3.78,3.18-.25,6.03-1.26,8.55-3.04,2.52-1.78,4.49-3.86,5.92-6.26,1.43-2.4,2.14-4.65,2.14-6.75.33,1.24.39,2.77.19,4.59-.21,1.82-.86,3.71-1.95,5.67-1.1,1.96-2.75,3.81-4.96,5.55-2.21,1.73-5.14,3.15-8.8,4.24-3.66,1.1-8.19,1.64-13.6,1.64h-9.98l-6.93-.95c-4.49-3.32-3.31-17.52-1.59-25.2,1.71-7.68,3.06-16.11,4.03-25.28.97-9.17.54-20.39-.24-29.48l-18.56,22.97c.78,5.54,1.73,13.16,2.85,22.86.66,7.44,1.28,13.86,1.86,19.27.37,3.76.78,7.54,1.24,11.34.45,3.8,1.26,7.3,2.42,10.5,1.16,3.2,2.93,5.78,5.33,7.75,2.3,1.89,5.51,2.86,9.6,2.94v.07h8.24c5.49,0,10.28-.82,14.34-2.45,4.07-1.63,7.52-3.78,10.35-6.44,2.83-2.66,5.11-5.63,6.85-8.89,1.73-3.26,2.99-6.59,3.78-9.98.78-3.39,1.18-6.57,1.18-9.54,0-5.29-.65-9.77-1.95-13.45ZM171.89,147.52c-2.64.21-5.93.02-9.85-.56-2.77-.45-4.55-1.27-5.36-2.45s-1.06-2.45-.77-3.81c.29-1.36,1.07-3.04,2.35-5.02,3.97.79,7.27,1.73,9.91,2.85,3.43,1.65,7.33,4.13,11.71,7.44-2.69.83-5.35,1.34-7.99,1.55Z"></path></g></svg>